<svg width="286" height="52" viewBox="0 0 286 52" fill="none" xmlns="http://www.w3.org/2000/svg">
<path d="M51.125 26.4844L49.0625 42.4688L45.7344 42.0469L49.5781 12.5391C50.1094 12.3984 50.6328 12.2891 51.1484 12.2109C51.6641 12.1328 52.1484 12.0781 52.6016 12.0469C53.0547 12 53.4609 11.9766 53.8203 11.9766C54.1797 11.9609 54.4766 11.9531 54.7109 11.9531C55.1953 11.9531 55.9062 11.9844 56.8438 12.0469C57.7969 12.1094 58.8203 12.2734 59.9141 12.5391L63.6875 42.0469L60.3828 42.4688L58.3203 26.4844H51.125ZM54.7109 15.0234C54.3359 15.0234 53.9609 15.0469 53.5859 15.0938C53.2109 15.125 52.8672 15.1797 52.5547 15.2578L51.5 23.4141H57.8516L56.8906 15.2578C56.5781 15.1797 56.2344 15.125 55.8594 15.0938C55.4844 15.0469 55.1016 15.0234 54.7109 15.0234ZM67.0391 22.125C67.4609 21.875 67.9453 21.6172 68.4922 21.3516C69.0547 21.0859 69.6797 20.8516 70.3672 20.6484C71.0703 20.4297 71.8281 20.2578 72.6406 20.1328C73.4688 19.9922 74.3672 19.9219 75.3359 19.9219C75.9453 19.9219 76.6016 19.9688 77.3047 20.0625C78.0078 20.1406 78.6953 20.3125 79.3672 20.5781C80.0547 20.8438 80.6953 21.2266 81.2891 21.7266C81.8828 22.2266 82.3828 22.8906 82.7891 23.7188C82.9453 24.0781 83.0781 24.4844 83.1875 24.9375C83.2969 25.3906 83.3828 25.9453 83.4453 26.6016C83.5234 27.2578 83.5781 28.0469 83.6094 28.9688C83.6406 29.875 83.6562 30.9688 83.6562 32.25V42H80.5859V32.1562C80.5859 31.1094 80.5703 30.1953 80.5391 29.4141C80.5234 28.6172 80.4844 27.9297 80.4219 27.3516C80.3594 26.7578 80.2656 26.2578 80.1406 25.8516C80.0156 25.4297 79.8594 25.0703 79.6719 24.7734C79.5312 24.5547 79.3438 24.3281 79.1094 24.0938C78.875 23.8594 78.5703 23.6484 78.1953 23.4609C77.8359 23.2734 77.3984 23.1172 76.8828 22.9922C76.3828 22.8672 75.7891 22.8047 75.1016 22.8047C74.3359 22.8047 73.6328 22.875 72.9922 23.0156C72.3672 23.1406 71.7891 23.3125 71.2578 23.5312V42H68.1875V24.4688L67.0391 22.125ZM92.5859 12.4219V16.0312H89.1406V12.4219H92.5859ZM92.3984 20.3906V42H89.3281V23.4141L88.3672 20.3906H92.3984ZM97.0391 23.0859C98.8203 22.0078 100.773 21.2109 102.898 20.6953C105.023 20.1797 107.266 19.9219 109.625 19.9219C110.047 19.9219 110.617 19.9453 111.336 19.9922C112.07 20.0234 112.852 20.125 113.68 20.2969C114.523 20.4688 115.367 20.7344 116.211 21.0938C117.055 21.4375 117.805 21.9141 118.461 22.5234C119.055 23.1016 119.523 23.7266 119.867 24.3984C120.211 25.0547 120.461 25.7344 120.617 26.4375C120.789 27.125 120.891 27.8203 120.922 28.5234C120.969 29.2266 120.992 29.9141 120.992 30.5859V42H117.969V32.25C117.969 31.6562 117.961 31.0156 117.945 30.3281C117.945 29.625 117.891 28.9297 117.781 28.2422C117.688 27.5547 117.523 26.9062 117.289 26.2969C117.07 25.6719 116.742 25.1328 116.305 24.6797C116.008 24.3828 115.648 24.1172 115.227 23.8828C114.82 23.6484 114.383 23.4531 113.914 23.2969C113.461 23.1406 113 23.0234 112.531 22.9453C112.078 22.8516 111.656 22.8047 111.266 22.8047V42H108.172V22.8047C107.047 22.8047 105.906 22.9141 104.75 23.1328C103.594 23.3359 102.5 23.6562 101.469 24.0938V42H98.3984V25.4297L97.0391 23.0859ZM137.727 29.1797C137.727 28.8359 137.719 28.4609 137.703 28.0547C137.703 27.6328 137.672 27.2109 137.609 26.7891C137.562 26.3672 137.477 25.9531 137.352 25.5469C137.242 25.125 137.078 24.75 136.859 24.4219C136.75 24.2656 136.602 24.0938 136.414 23.9062C136.242 23.7188 136.023 23.5469 135.758 23.3906C135.492 23.2188 135.172 23.0781 134.797 22.9688C134.422 22.8594 133.992 22.8047 133.508 22.8047C133.039 22.8047 132.617 22.8594 132.242 22.9688C131.883 23.0781 131.562 23.2188 131.281 23.3906C131.016 23.5469 130.789 23.7188 130.602 23.9062C130.43 24.0938 130.289 24.2656 130.18 24.4219C129.961 24.7656 129.789 25.1406 129.664 25.5469C129.555 25.9531 129.477 26.375 129.43 26.8125C129.383 27.2344 129.352 27.6484 129.336 28.0547C129.336 28.4609 129.336 28.8359 129.336 29.1797H137.727ZM129.336 32.0625V38.3438C130.086 38.8438 130.891 39.1797 131.75 39.3516C132.609 39.5234 133.414 39.6094 134.164 39.6094C135.539 39.6094 136.773 39.4609 137.867 39.1641C138.977 38.8516 140.047 38.3438 141.078 37.6406V40.8516C140.094 41.4297 139.039 41.8438 137.914 42.0938C136.789 42.3438 135.562 42.4688 134.234 42.4688C132.188 42.4688 130.391 42.1875 128.844 41.625C127.297 41.0469 125.891 40.1953 124.625 39.0703L126.266 37.1016V29.2734V28.4531C126.266 28 126.281 27.5078 126.312 26.9766C126.344 26.4297 126.414 25.875 126.523 25.3125C126.648 24.7344 126.836 24.1719 127.086 23.625C127.336 23.0625 127.68 22.5312 128.117 22.0312C128.555 21.5469 129.008 21.1641 129.477 20.8828C129.961 20.6016 130.445 20.3906 130.93 20.25C131.414 20.1094 131.883 20.0234 132.336 19.9922C132.805 19.9453 133.242 19.9219 133.648 19.9219C134.039 19.9219 134.469 19.9453 134.938 19.9922C135.406 20.0234 135.883 20.1094 136.367 20.25C136.852 20.3906 137.328 20.6016 137.797 20.8828C138.281 21.1641 138.734 21.5469 139.156 22.0312C139.656 22.6094 140.039 23.2344 140.305 23.9062C140.57 24.5625 140.758 25.2188 140.867 25.875C140.992 26.5156 141.055 27.1328 141.055 27.7266C141.07 28.3203 141.078 28.8359 141.078 29.2734V32.0625H129.336ZM158.07 24.3281C157.164 23.8594 156.281 23.5078 155.422 23.2734C154.578 23.0234 153.617 22.8984 152.539 22.8984C152.008 22.8984 151.508 22.9453 151.039 23.0391C150.586 23.1328 150.188 23.2969 149.844 23.5312C149.5 23.75 149.227 24.0469 149.023 24.4219C148.82 24.7969 148.719 25.2656 148.719 25.8281C148.719 26.2656 148.789 26.6484 148.93 26.9766C149.086 27.3047 149.297 27.6016 149.562 27.8672C149.844 28.1328 150.164 28.375 150.523 28.5938C150.883 28.8125 151.273 29.0234 151.695 29.2266L154.859 30.7734C156.25 31.4609 157.344 32.2422 158.141 33.1172C158.953 33.9766 159.359 35.0469 159.359 36.3281V37.4297L161 39.3984C160.297 40.0391 159.57 40.5625 158.82 40.9688C158.086 41.3594 157.344 41.6719 156.594 41.9062C155.844 42.125 155.102 42.2734 154.367 42.3516C153.633 42.4297 152.914 42.4688 152.211 42.4688C150.789 42.4688 149.531 42.3516 148.438 42.1172C147.359 41.8984 146.422 41.6172 145.625 41.2734V38.2031C146.062 38.3906 146.508 38.5703 146.961 38.7422C147.43 38.9141 147.922 39.0703 148.438 39.2109C148.953 39.3359 149.508 39.4375 150.102 39.5156C150.711 39.5781 151.383 39.6094 152.117 39.6094C153.008 39.6094 153.812 39.5156 154.531 39.3281C155.266 39.1406 155.852 38.8828 156.289 38.5547V37.5938C156.289 37.1094 156.242 36.6719 156.148 36.2812C156.055 35.8906 155.891 35.5312 155.656 35.2031C155.438 34.875 155.133 34.5625 154.742 34.2656C154.352 33.9688 153.859 33.6641 153.266 33.3516L149.562 31.5469C149.031 31.2969 148.523 31.0078 148.039 30.6797C147.57 30.3516 147.156 29.9609 146.797 29.5078C146.438 29.0547 146.148 28.5312 145.93 27.9375C145.727 27.3281 145.625 26.625 145.625 25.8281C145.625 24.9375 145.781 24.1328 146.094 23.4141C146.406 22.6797 146.859 22.0547 147.453 21.5391C148.062 21.0234 148.789 20.625 149.633 20.3438C150.492 20.0625 151.461 19.9219 152.539 19.9219C153.914 19.9219 155.164 20.0859 156.289 20.4141C157.414 20.7422 158.422 21.1562 159.312 21.6562L158.07 24.3281ZM182.609 39.3984C183.781 39.3984 184.812 39.2812 185.703 39.0469C186.594 38.7969 187.398 38.4219 188.117 37.9219V23.0391C188.117 22.0703 188.047 21.1094 187.906 20.1562C187.766 19.1875 187.492 18.3281 187.086 17.5781C186.68 16.8125 186.117 16.1953 185.398 15.7266C184.68 15.2578 183.75 15.0234 182.609 15.0234C181.453 15.0234 180.516 15.2578 179.797 15.7266C179.078 16.1953 178.516 16.8125 178.109 17.5781C177.703 18.3281 177.43 19.1875 177.289 20.1562C177.148 21.1094 177.078 22.0703 177.078 23.0391V37.9219C177.828 38.4219 178.641 38.7969 179.516 39.0469C180.406 39.2812 181.438 39.3984 182.609 39.3984ZM182.609 11.9531C184.281 11.9531 185.68 12.25 186.805 12.8438C187.945 13.4219 188.859 14.2109 189.547 15.2109C190.25 16.2109 190.75 17.3906 191.047 18.75C191.344 20.0938 191.492 21.5234 191.492 23.0391V36.375L193.203 38.6016C192.672 39.0547 192.062 39.5156 191.375 39.9844C190.688 40.4375 189.906 40.8516 189.031 41.2266C188.172 41.5859 187.203 41.8828 186.125 42.1172C185.062 42.3516 183.891 42.4688 182.609 42.4688C181.438 42.4688 180.383 42.375 179.445 42.1875C178.508 42.0156 177.672 41.7969 176.938 41.5312C176.219 41.2656 175.594 40.9766 175.062 40.6641C174.531 40.3516 174.086 40.0625 173.727 39.7969V23.0391C173.727 21.5234 173.875 20.0938 174.172 18.75C174.469 17.3906 174.961 16.2109 175.648 15.2109C176.336 14.2109 177.242 13.4219 178.367 12.8438C179.508 12.25 180.922 11.9531 182.609 11.9531ZM196.602 22.125C197.023 21.875 197.508 21.6172 198.055 21.3516C198.617 21.0859 199.242 20.8516 199.93 20.6484C200.633 20.4297 201.391 20.2578 202.203 20.1328C203.031 19.9922 203.93 19.9219 204.898 19.9219C205.508 19.9219 206.164 19.9688 206.867 20.0625C207.57 20.1406 208.258 20.3125 208.93 20.5781C209.617 20.8438 210.258 21.2266 210.852 21.7266C211.445 22.2266 211.945 22.8906 212.352 23.7188C212.508 24.0781 212.641 24.4844 212.75 24.9375C212.859 25.3906 212.945 25.9453 213.008 26.6016C213.086 27.2578 213.141 28.0469 213.172 28.9688C213.203 29.875 213.219 30.9688 213.219 32.25V42H210.148V32.1562C210.148 31.1094 210.133 30.1953 210.102 29.4141C210.086 28.6172 210.047 27.9297 209.984 27.3516C209.922 26.7578 209.828 26.2578 209.703 25.8516C209.578 25.4297 209.422 25.0703 209.234 24.7734C209.094 24.5547 208.906 24.3281 208.672 24.0938C208.438 23.8594 208.133 23.6484 207.758 23.4609C207.398 23.2734 206.961 23.1172 206.445 22.9922C205.945 22.8672 205.352 22.8047 204.664 22.8047C203.898 22.8047 203.195 22.875 202.555 23.0156C201.93 23.1406 201.352 23.3125 200.82 23.5312V42H197.75V24.4688L196.602 22.125ZM221.68 10.5703V29.5781C221.68 30.8906 221.719 32.0469 221.797 33.0469C221.891 34.0312 222.094 34.9219 222.406 35.7188C222.734 36.5156 223.211 37.25 223.836 37.9219C224.477 38.5938 225.344 39.2656 226.438 39.9375L224.844 42.4688C223.531 41.7656 222.461 41.0078 221.633 40.1953C220.82 39.3828 220.188 38.4688 219.734 37.4531C219.297 36.4219 219 35.2656 218.844 33.9844C218.688 32.7031 218.609 31.2344 218.609 29.5781V13.5938L217.648 10.5703H221.68ZM232.883 12.4219V16.0312H229.438V12.4219H232.883ZM232.695 20.3906V42H229.625V23.4141L228.664 20.3906H232.695ZM237.477 22.125C237.898 21.875 238.383 21.6172 238.93 21.3516C239.492 21.0859 240.117 20.8516 240.805 20.6484C241.508 20.4297 242.266 20.2578 243.078 20.1328C243.906 19.9922 244.805 19.9219 245.773 19.9219C246.383 19.9219 247.039 19.9688 247.742 20.0625C248.445 20.1406 249.133 20.3125 249.805 20.5781C250.492 20.8438 251.133 21.2266 251.727 21.7266C252.32 22.2266 252.82 22.8906 253.227 23.7188C253.383 24.0781 253.516 24.4844 253.625 24.9375C253.734 25.3906 253.82 25.9453 253.883 26.6016C253.961 27.2578 254.016 28.0469 254.047 28.9688C254.078 29.875 254.094 30.9688 254.094 32.25V42H251.023V32.1562C251.023 31.1094 251.008 30.1953 250.977 29.4141C250.961 28.6172 250.922 27.9297 250.859 27.3516C250.797 26.7578 250.703 26.2578 250.578 25.8516C250.453 25.4297 250.297 25.0703 250.109 24.7734C249.969 24.5547 249.781 24.3281 249.547 24.0938C249.312 23.8594 249.008 23.6484 248.633 23.4609C248.273 23.2734 247.836 23.1172 247.32 22.9922C246.82 22.8672 246.227 22.8047 245.539 22.8047C244.773 22.8047 244.07 22.875 243.43 23.0156C242.805 23.1406 242.227 23.3125 241.695 23.5312V42H238.625V24.4688L237.477 22.125ZM270.898 29.1797C270.898 28.8359 270.891 28.4609 270.875 28.0547C270.875 27.6328 270.844 27.2109 270.781 26.7891C270.734 26.3672 270.648 25.9531 270.523 25.5469C270.414 25.125 270.25 24.75 270.031 24.4219C269.922 24.2656 269.773 24.0938 269.586 23.9062C269.414 23.7188 269.195 23.5469 268.93 23.3906C268.664 23.2188 268.344 23.0781 267.969 22.9688C267.594 22.8594 267.164 22.8047 266.68 22.8047C266.211 22.8047 265.789 22.8594 265.414 22.9688C265.055 23.0781 264.734 23.2188 264.453 23.3906C264.188 23.5469 263.961 23.7188 263.773 23.9062C263.602 24.0938 263.461 24.2656 263.352 24.4219C263.133 24.7656 262.961 25.1406 262.836 25.5469C262.727 25.9531 262.648 26.375 262.602 26.8125C262.555 27.2344 262.523 27.6484 262.508 28.0547C262.508 28.4609 262.508 28.8359 262.508 29.1797H270.898ZM262.508 32.0625V38.3438C263.258 38.8438 264.062 39.1797 264.922 39.3516C265.781 39.5234 266.586 39.6094 267.336 39.6094C268.711 39.6094 269.945 39.4609 271.039 39.1641C272.148 38.8516 273.219 38.3438 274.25 37.6406V40.8516C273.266 41.4297 272.211 41.8438 271.086 42.0938C269.961 42.3438 268.734 42.4688 267.406 42.4688C265.359 42.4688 263.562 42.1875 262.016 41.625C260.469 41.0469 259.062 40.1953 257.797 39.0703L259.438 37.1016V29.2734V28.4531C259.438 28 259.453 27.5078 259.484 26.9766C259.516 26.4297 259.586 25.875 259.695 25.3125C259.82 24.7344 260.008 24.1719 260.258 23.625C260.508 23.0625 260.852 22.5312 261.289 22.0312C261.727 21.5469 262.18 21.1641 262.648 20.8828C263.133 20.6016 263.617 20.3906 264.102 20.25C264.586 20.1094 265.055 20.0234 265.508 19.9922C265.977 19.9453 266.414 19.9219 266.82 19.9219C267.211 19.9219 267.641 19.9453 268.109 19.9922C268.578 20.0234 269.055 20.1094 269.539 20.25C270.023 20.3906 270.5 20.6016 270.969 20.8828C271.453 21.1641 271.906 21.5469 272.328 22.0312C272.828 22.6094 273.211 23.2344 273.477 23.9062C273.742 24.5625 273.93 25.2188 274.039 25.875C274.164 26.5156 274.227 27.1328 274.227 27.7266C274.242 28.3203 274.25 28.8359 274.25 29.2734V32.0625H262.508ZM282.898 37.9688V42H278.867V37.9688H282.898Z" fill="#FCFCFC"/>
<path d="M32.956 22.6957C32.48 21.5635 31.9375 20.2807 31.4107 18.697C30.0282 14.5512 34.4452 10.0292 34.4872 9.98725L32.0127 7.51275C31.7677 7.75775 26.0225 13.5992 28.0892 19.803C28.6597 21.5145 29.2302 22.8655 29.7307 24.0555C30.8986 26.363 31.5049 28.9138 31.5 31.5C31.2949 33.5846 30.4946 35.5662 29.1945 37.2085C27.8944 38.8509 26.1494 40.0847 24.1675 40.7627C24.7936 38.3087 24.7843 35.7356 24.1404 33.2862C23.4965 30.8367 22.2392 28.5917 20.4872 26.7627L18.6602 24.9357L17.6417 27.3105C14.4287 34.8075 10.605 38.08 8.35625 39.445C6.97576 38.5995 5.8157 37.4385 4.97145 36.0572C4.1272 34.676 3.62289 33.1141 3.5 31.5C3.62072 29.297 4.17309 27.1392 5.12575 25.1492C6.25556 22.7504 6.89287 20.1494 7 17.5V14.3885C8.5295 15.0185 10.5 16.6687 10.5 21V25.5552L13.5502 22.1707C18.9962 16.1262 17.8605 8.9285 15.6607 4.13175C17.3329 4.68912 18.7688 5.79297 19.7373 7.26558C20.7058 8.73819 21.1506 10.4939 21 12.25H24.5C24.5 2.56025 16.4867 0 12.25 0H8.75L10.85 2.79825C11.0897 3.122 15.8585 9.6705 13.2177 16.2522C12.6301 14.5983 11.5532 13.1622 10.13 12.1348C8.7069 11.1074 7.00487 10.5372 5.25 10.5H3.5V17.5C3.37928 19.703 2.8269 21.8607 1.87425 23.8507C0.744443 26.2496 0.10713 28.8506 0 31.5C0 38.234 6.69025 45.5 17.5 45.5C28.3097 45.5 35 38.234 35 31.5C35.0026 28.4474 34.3033 25.435 32.956 22.6957ZM11.9612 41.1705C13.6238 39.7943 15.1218 38.2401 16.4305 36.5398C17.6629 34.9387 18.7275 33.2079 19.6035 31.374C20.5678 32.9311 21.1157 34.71 21.1945 36.5398C21.2732 38.3697 20.8802 40.189 20.0532 41.8232C19.2069 41.9371 18.354 41.9962 17.5 42C15.6219 42.013 13.7532 41.7331 11.9612 41.1705Z" fill="#BD00FF"/>
</svg>
